<?xml version="1.0" standalone="no"?>
<!DOCTYPE svg PUBLIC "-//W3C//DTD SVG 20010904//EN"
 "http://www.w3.org/TR/2001/REC-SVG-20010904/DTD/svg10.dtd">
<svg version="1.0" xmlns="http://www.w3.org/2000/svg"
 width="1024.000000pt" height="1024.000000pt" viewBox="0 0 1024.000000 1024.000000"
 preserveAspectRatio="xMidYMid meet">

<g transform="translate(0.000000,1024.000000) scale(0.100000,-0.100000)"
fill="#000000" stroke="none">
<path d="M4878 8673 c12 -2 30 -2 40 0 9 3 -1 5 -23 4 -22 0 -30 -2 -17 -4z"/>
<path d="M5358 8673 c12 -2 32 -2 45 0 12 2 2 4 -23 4 -25 0 -35 -2 -22 -4z"/>
<path d="M4670 8660 l-25 -8 25 0 c14 0 39 4 55 8 l30 8 -30 0 c-16 0 -41 -4
-55 -8z"/>
<path d="M5568 8653 c7 -3 16 -2 19 1 4 3 -2 6 -13 5 -11 0 -14 -3 -6 -6z"/>
<path d="M4540 8640 c-12 -8 -11 -10 5 -9 11 1 31 5 45 9 24 8 24 8 -5 9 -16
0 -37 -4 -45 -9z"/>
<path d="M5665 8640 c11 -5 31 -9 45 -9 20 -1 22 1 10 9 -8 5 -28 9 -45 9 -26
0 -27 -2 -10 -9z"/>
<path d="M4435 8620 c-7 -12 12 -12 40 0 18 8 17 9 -7 9 -15 1 -30 -3 -33 -9z"/>
<path d="M5761 8626 c12 -10 60 -16 54 -6 -3 5 -18 10 -32 10 -15 0 -24 -2
-22 -4z"/>
<path d="M4345 8600 c-7 -12 12 -12 40 0 18 8 17 9 -7 9 -15 1 -30 -3 -33 -9z"/>
<path d="M5880 8600 c36 -11 52 -11 45 0 -3 6 -21 10 -38 9 -31 -1 -31 -1 -7
-9z"/>
<path d="M4265 8580 c-7 -12 2 -12 30 0 19 8 19 9 -2 9 -12 1 -25 -3 -28 -9z"/>
<path d="M5948 8583 c6 -2 18 -2 25 0 6 3 1 5 -13 5 -14 0 -19 -2 -12 -5z"/>
<path d="M4190 8560 c0 -12 8 -12 35 0 18 8 17 9 -7 9 -16 1 -28 -3 -28 -9z"/>
<path d="M6028 8563 c6 -2 18 -2 25 0 6 3 1 5 -13 5 -14 0 -19 -2 -12 -5z"/>
<path d="M4115 8540 c-7 -12 12 -12 40 0 18 8 17 9 -7 9 -15 1 -30 -3 -33 -9z"/>
<path d="M6098 8543 c7 -3 16 -2 19 1 4 3 -2 6 -13 5 -11 0 -14 -3 -6 -6z"/>
<path d="M4060 8521 c0 -5 9 -7 20 -4 11 3 20 7 20 9 0 2 -9 4 -20 4 -11 0
-20 -4 -20 -9z"/>
<path d="M6165 8520 c28 -12 37 -12 30 0 -3 6 -16 10 -28 9 -21 0 -21 -1 -2
-9z"/>
<path d="M3995 8500 c-3 -5 -15 -10 -26 -10 -10 0 -19 -4 -19 -10 0 -5 19 -2
43 7 52 20 56 23 29 23 -11 0 -24 -4 -27 -10z"/>
<path d="M6218 8503 c7 -3 16 -2 19 1 4 3 -2 6 -13 5 -11 0 -14 -3 -6 -6z"/>
<path d="M6280 8483 c8 -2 25 -9 37 -15 11 -6 27 -8 35 -5 7 3 4 6 -9 6 -12 1
-25 6 -28 11 -3 6 -16 10 -28 9 -14 0 -16 -2 -7 -6z"/>
<path d="M3870 8454 c-33 -18 -11 -18 31 1 22 9 27 14 14 14 -11 -1 -31 -7
-45 -15z"/>
<path d="M6380 8446 c0 -2 9 -6 20 -9 11 -3 18 -1 14 4 -5 9 -34 13 -34 5z"/>
<path d="M4990 8433 c-278 -20 -433 -43 -635 -92 -658 -162 -1297 -567 -1718
-1089 -380 -470 -604 -950 -726 -1557 -62 -309 -68 -744 -16 -1120 18 -128 74
-383 110 -505 114 -387 316 -773 580 -1110 107 -138 383 -416 515 -521 462
-366 976 -591 1549 -679 378 -58 746 -47 1156 35 904 181 1726 799 2183 1641
211 390 342 824 393 1309 19 173 16 579 -5 740 -52 408 -158 759 -336 1120
-296 601 -753 1091 -1315 1410 -347 198 -743 333 -1140 389 -193 28 -447 40
-595 29z m530 -267 c484 -73 826 -201 1210 -453 131 -86 260 -189 260 -206 0
-7 -45 -57 -100 -112 -56 -55 -108 -113 -116 -128 -17 -31 -123 -144 -485
-512 -135 -137 -342 -349 -461 -470 -118 -121 -323 -330 -456 -465 l-242 -245
-312 314 c-172 173 -323 328 -335 345 -13 16 -23 26 -23 21 0 -4 -11 5 -24 20
-14 16 -22 33 -19 38 3 6 2 7 -4 4 -13 -8 -246 227 -236 238 4 4 3 5 -3 2 -6
-4 -24 8 -40 26 -15 18 -107 113 -204 212 -312 321 -387 401 -433 461 -25 32
-86 99 -136 149 -50 49 -91 95 -91 101 0 41 329 264 558 377 331 164 658 259
1027 296 132 14 540 5 665 -13z m-2440 -1063 c235 -246 860 -890 1245 -1283
115 -118 293 -300 395 -405 103 -104 237 -242 298 -305 l112 -115 67 70 c95
99 988 1020 1228 1265 247 253 493 507 689 710 l149 154 59 -63 c243 -258 454
-608 572 -947 105 -301 143 -546 153 -979 8 -405 -11 -693 -71 -1084 l-15 -95
-155 -155 c-85 -86 -185 -189 -222 -228 -37 -40 -73 -73 -80 -73 -12 0 -14
184 -14 1133 l0 1132 -55 268 c-29 148 -55 271 -57 273 -2 1 -68 -69 -146
-157 l-142 -161 0 -1301 0 -1302 -257 -257 c-142 -142 -262 -258 -267 -258 -5
0 -7 532 -3 1315 3 723 2 1317 -2 1319 -4 3 -96 -85 -204 -194 l-197 -199 0
-965 c0 -531 -3 -966 -7 -966 -5 0 -115 109 -245 242 l-237 243 -1 475 -1 475
-270 -275 -271 -275 -268 273 c-147 149 -271 272 -275 272 -5 0 -6 -168 -4
-372 3 -205 2 -421 -1 -479 l-5 -106 -231 -237 c-127 -130 -234 -236 -238
-236 -3 0 -6 433 -6 963 l-1 962 -202 205 -202 205 -3 -1325 -2 -1325 -260
260 -260 260 0 1300 -1 1300 -27 31 c-148 169 -256 290 -262 292 -4 1 -16 -46
-28 -105 -12 -59 -36 -173 -54 -253 l-32 -145 -3 -1152 c-2 -634 -7 -1153 -11
-1153 -5 0 -48 42 -97 93 -49 50 -149 153 -222 227 l-133 135 -25 140 c-48
270 -56 372 -62 785 -8 537 10 745 86 1043 88 338 275 697 531 1017 98 121
150 180 160 180 4 0 44 -39 90 -87z m2613 -3854 c139 -140 301 -305 361 -367
l110 -113 -79 -79 c-44 -44 -84 -80 -90 -80 -19 0 -167 159 -159 171 5 8 3 9
-6 4 -8 -5 -29 10 -63 46 -135 146 -392 405 -411 416 -14 9 -85 12 -232 13
l-210 0 -276 -277 c-151 -153 -298 -302 -325 -330 l-49 -53 -84 85 c-82 82
-83 85 -66 104 10 11 79 82 154 158 397 406 547 552 566 555 12 2 153 3 314 2
l294 0 251 -255z m-2310 -362 c397 -336 849 -542 1359 -618 756 -112 1561 117
2116 602 l83 72 80 -79 c109 -108 109 -108 62 -156 -107 -111 -356 -289 -553
-395 -217 -116 -416 -192 -663 -252 -453 -111 -889 -119 -1353 -26 -441 89
-919 318 -1253 602 -57 48 -109 96 -115 105 -9 15 3 32 79 108 49 49 91 90 93
90 1 0 31 -24 65 -53z"/>
<path d="M5018 7903 c7 -3 16 -2 19 1 4 3 -2 6 -13 5 -11 0 -14 -3 -6 -6z"/>
<path d="M5073 7903 c15 -2 37 -2 50 0 12 2 0 4 -28 4 -27 0 -38 -2 -22 -4z"/>
<path d="M5218 7903 c12 -2 32 -2 45 0 12 2 2 4 -23 4 -25 0 -35 -2 -22 -4z"/>
<path d="M5368 7893 c7 -3 16 -2 19 1 4 3 -2 6 -13 5 -11 0 -14 -3 -6 -6z"/>
<path d="M5448 7883 c7 -3 16 -2 19 1 4 3 -2 6 -13 5 -11 0 -14 -3 -6 -6z"/>
<path d="M6167 7689 c7 -7 15 -10 18 -7 3 3 -2 9 -12 12 -14 6 -15 5 -6 -5z"/>
<path d="M4925 7670 c-251 -26 -475 -81 -695 -172 -173 -72 -413 -217 -407
-245 1 -7 180 -194 398 -415 218 -222 459 -468 536 -548 77 -80 192 -199 256
-265 l117 -120 96 100 c54 55 167 172 251 260 141 146 265 273 785 801 98 100
178 184 178 187 0 10 -34 47 -43 47 -4 0 -42 23 -84 52 -213 143 -551 261
-868 303 -147 20 -399 27 -520 15z"/>
<path d="M6550 7476 c0 -2 14 -14 30 -26 17 -12 30 -19 30 -16 0 2 -13 14 -30
26 -16 12 -30 19 -30 16z"/>
<path d="M6660 7396 c0 -2 8 -10 18 -17 15 -13 16 -12 3 4 -13 16 -21 21 -21
13z"/>
<path d="M3580 7369 c-22 -18 -22 -19 -3 -10 12 6 25 16 28 21 9 15 3 12 -25
-11z"/>
<path d="M3582 6007 c-6 -6 -13 -24 -17 -39 -9 -36 34 -83 68 -72 55 16 76 74
39 107 -22 20 -75 22 -90 4z"/>
<path d="M3270 5845 c-20 -25 -8 -50 25 -50 21 0 31 5 33 18 4 21 -14 47 -33
47 -7 0 -18 -7 -25 -15z"/>
<path d="M5454 4956 c-11 -28 1 -51 28 -54 31 -4 48 29 28 53 -16 19 -49 19
-56 1z"/>
<path d="M4330 4405 c-26 -31 18 -71 47 -42 19 19 8 57 -16 57 -10 0 -24 -7
-31 -15z"/>
<path d="M6741 4076 c-38 -46 25 -111 69 -71 22 20 26 55 8 73 -17 17 -63 15
-77 -2z"/>
<path d="M3808 8423 c7 -3 16 -2 19 1 4 3 -2 6 -13 5 -11 0 -14 -3 -6 -6z"/>
<path d="M6438 8423 c7 -3 16 -2 19 1 4 3 -2 6 -13 5 -11 0 -14 -3 -6 -6z"/>
<path d="M6488 8403 c7 -3 16 -2 19 1 4 3 -2 6 -13 5 -11 0 -14 -3 -6 -6z"/>
<path d="M3642 8356 c-31 -18 -41 -29 -17 -20 38 15 70 34 55 33 -8 -1 -25 -7
-38 -13z"/>
<path d="M3575 8320 c-3 -6 1 -7 9 -4 18 7 21 14 7 14 -6 0 -13 -4 -16 -10z"/>
<path d="M6716 8295 c10 -8 23 -15 28 -15 6 0 1 7 -10 15 -10 8 -23 15 -28 15
-6 0 -1 -7 10 -15z"/>
<path d="M3504 8284 c-18 -14 -18 -15 4 -4 12 6 22 13 22 15 0 8 -5 6 -26 -11z"/>
<path d="M6767 8269 c7 -7 15 -10 18 -7 3 3 -2 9 -12 12 -14 6 -15 5 -6 -5z"/>
<path d="M6830 8236 c0 -2 7 -7 16 -10 8 -3 12 -2 9 4 -6 10 -25 14 -25 6z"/>
<path d="M6900 8195 c0 -2 15 -12 33 -20 l32 -16 -25 20 c-24 20 -40 26 -40
16z"/>
<path d="M3320 8180 c-9 -6 -10 -10 -3 -10 6 0 15 5 18 10 8 12 4 12 -15 0z"/>
<path d="M3260 8139 c-17 -13 -18 -17 -5 -10 33 17 51 31 40 31 -5 0 -21 -10
-35 -21z"/>
<path d="M6975 8150 c3 -5 8 -10 11 -10 2 0 4 5 4 10 0 6 -5 10 -11 10 -5 0
-7 -4 -4 -10z"/>
<path d="M7035 8110 c3 -5 8 -10 11 -10 2 0 4 5 4 10 0 6 -5 10 -11 10 -5 0
-7 -4 -4 -10z"/>
<path d="M3180 8089 c0 -5 5 -7 10 -4 6 3 10 8 10 11 0 2 -4 4 -10 4 -5 0 -10
-5 -10 -11z"/>
<path d="M7076 8085 c10 -8 23 -15 28 -15 6 0 1 7 -10 15 -10 8 -23 15 -28 15
-6 0 -1 -7 10 -15z"/>
<path d="M3112 8045 c-7 -8 -9 -15 -4 -15 5 0 15 7 22 15 16 19 -1 19 -18 0z"/>
<path d="M7200 7995 c19 -14 36 -25 39 -25 10 1 -53 50 -63 50 -6 0 5 -11 24
-25z"/>
<path d="M7286 7934 c60 -55 153 -134 159 -134 9 0 -33 39 -90 85 -28 21 -52
42 -55 45 -3 3 -14 11 -25 19 -11 7 -6 1 11 -15z"/>
<path d="M2864 7848 l-29 -33 35 30 c19 17 37 31 39 33 2 1 0 2 -5 2 -6 0 -23
-15 -40 -32z"/>
<path d="M2730 7727 c-36 -35 -78 -78 -95 -97 -16 -19 14 8 68 60 53 52 97 96
97 97 0 7 -8 -1 -70 -60z"/>
<path d="M7520 7726 c0 -2 8 -10 18 -17 15 -13 16 -12 3 4 -13 16 -21 21 -21
13z"/>
<path d="M7625 7620 c67 -68 92 -88 64 -53 -29 36 -117 123 -125 123 -5 0 23
-31 61 -70z"/>
<path d="M2569 7563 l-24 -28 28 24 c25 23 32 31 24 31 -2 0 -14 -12 -28 -27z"/>
<path d="M2501 7488 c-14 -23 -14 -23 8 -4 22 20 25 26 13 26 -4 0 -13 -10
-21 -22z"/>
<path d="M7800 7435 c0 -4 11 -20 25 -37 14 -16 25 -26 25 -23 0 4 -11 20 -25
37 -14 16 -25 26 -25 23z"/>
<path d="M2429 7403 c-34 -38 -53 -63 -46 -63 2 0 21 20 41 45 41 50 44 61 5
18z"/>
<path d="M7880 7332 c0 -4 12 -19 27 -33 20 -18 23 -19 13 -4 -24 32 -40 47
-40 37z"/>
<path d="M2331 7277 c-13 -21 -12 -21 5 -5 10 10 16 20 13 22 -3 3 -11 -5 -18
-17z"/>
<path d="M7970 7213 c13 -18 26 -30 29 -28 3 3 -8 18 -23 33 l-29 27 23 -32z"/>
<path d="M2271 7203 c-7 -8 -11 -16 -8 -19 2 -2 10 2 17 11 17 20 9 27 -9 8z"/>
<path d="M8017 7148 c5 -7 19 -30 32 -51 13 -21 26 -36 28 -33 5 5 -55 96 -63
96 -3 0 -1 -6 3 -12z"/>
<path d="M2165 7044 c-9 -14 -15 -27 -13 -30 2 -2 12 10 22 26 21 37 15 40 -9
4z"/>
<path d="M8109 7005 c17 -33 31 -51 31 -40 0 6 -10 21 -21 35 -13 17 -17 18
-10 5z"/>
<path d="M2015 6789 c-4 -6 -5 -12 -2 -15 2 -3 7 2 10 11 7 17 1 20 -8 4z"/>
<path d="M1990 6739 c-7 -11 -10 -23 -7 -25 2 -2 9 7 15 21 14 30 7 33 -8 4z"/>
<path d="M8261 6740 c0 -17 68 -151 68 -135 0 6 -15 42 -34 80 -19 39 -34 63
-34 55z"/>
<path d="M8337 6569 c4 -13 8 -18 11 -10 2 7 -1 18 -6 23 -8 8 -9 4 -5 -13z"/>
<path d="M1903 6555 c-3 -9 -3 -18 -1 -21 3 -3 8 4 11 16 6 23 -1 27 -10 5z"/>
<path d="M8370 6490 c0 -5 5 -10 11 -10 5 0 7 5 4 10 -3 6 -8 10 -11 10 -2 0
-4 -4 -4 -10z"/>
<path d="M1863 6465 c-3 -9 -3 -18 -1 -21 3 -3 8 4 11 16 6 23 -1 27 -10 5z"/>
<path d="M8387 6449 c4 -13 8 -18 11 -10 2 7 -1 18 -6 23 -8 8 -9 4 -5 -13z"/>
<path d="M1843 6415 c-3 -9 -3 -18 -1 -21 3 -3 8 4 11 16 6 23 -1 27 -10 5z"/>
<path d="M1820 6358 c0 -19 2 -20 10 -8 13 19 13 30 0 30 -5 0 -10 -10 -10
-22z"/>
<path d="M8431 6334 c0 -11 3 -14 6 -6 3 7 2 16 -1 19 -3 4 -6 -2 -5 -13z"/>
<path d="M1807 6323 c-4 -3 -7 -16 -6 -27 0 -19 1 -19 10 3 10 24 8 36 -4 24z"/>
<path d="M8451 6284 c0 -11 3 -14 6 -6 3 7 2 16 -1 19 -3 4 -6 -2 -5 -13z"/>
<path d="M8467 6229 c4 -13 8 -18 11 -10 2 7 -1 18 -6 23 -8 8 -9 4 -5 -13z"/>
<path d="M8491 6154 c0 -11 3 -14 6 -6 3 7 2 16 -1 19 -3 4 -6 -2 -5 -13z"/>
<path d="M1751 6134 c0 -11 3 -14 6 -6 3 7 2 16 -1 19 -3 4 -6 -2 -5 -13z"/>
<path d="M8511 6094 c0 -11 3 -14 6 -6 3 7 2 16 -1 19 -3 4 -6 -2 -5 -13z"/>
<path d="M1732 6070 c0 -14 2 -19 5 -12 2 6 2 18 0 25 -3 6 -5 1 -5 -13z"/>
<path d="M8532 6025 c0 -16 2 -22 5 -12 2 9 2 23 0 30 -3 6 -5 -1 -5 -18z"/>
<path d="M1714 6015 c-3 -8 -4 -20 -2 -27 3 -7 7 -1 10 15 6 29 1 36 -8 12z"/>
<path d="M8541 5980 c1 -8 5 -26 9 -40 l8 -25 1 25 c0 14 -4 32 -9 40 -9 13
-10 13 -9 0z"/>
<path d="M1697 5953 c-4 -3 -7 -18 -6 -32 1 -26 1 -25 10 3 9 31 7 41 -4 29z"/>
<path d="M8566 5873 c9 -38 14 -42 14 -10 0 14 -5 29 -10 32 -7 4 -8 -3 -4
-22z"/>
<path d="M1677 5884 c-4 -4 -7 -23 -6 -43 l1 -36 9 33 c11 36 9 58 -4 46z"/>
<path d="M8581 5813 c-1 -12 4 -25 9 -28 12 -7 12 2 0 30 -8 19 -9 19 -9 -2z"/>
<path d="M1657 5773 c-4 -3 -6 -22 -6 -42 l1 -36 8 40 c8 42 8 49 -3 38z"/>
<path d="M8602 5705 c0 -16 2 -22 5 -12 2 9 2 23 0 30 -3 6 -5 -1 -5 -18z"/>
<path d="M1637 5666 c-4 -10 -7 -34 -6 -54 l1 -37 9 45 c10 48 7 75 -4 46z"/>
<path d="M8623 5570 c0 -25 2 -35 4 -22 2 12 2 32 0 45 -2 12 -4 2 -4 -23z"/>
<path d="M1617 5537 c-4 -10 -6 -44 -6 -75 l1 -57 9 60 c10 67 8 102 -4 72z"/>
<path d="M8643 5365 c0 -33 2 -45 4 -27 2 18 2 45 0 60 -2 15 -4 0 -4 -33z"/>
<path d="M8643 4810 c0 -41 2 -58 4 -37 2 20 2 54 0 75 -2 20 -4 3 -4 -38z"/>
<path d="M1611 4705 c0 -38 4 -77 9 -85 12 -18 12 30 0 105 l-7 50 -2 -70z"/>
<path d="M8623 4620 c0 -25 2 -35 4 -22 2 12 2 32 0 45 -2 12 -4 2 -4 -23z"/>
<path d="M1630 4562 c0 -22 4 -43 9 -46 5 -4 7 12 4 36 -8 57 -13 61 -13 10z"/>
<path d="M8603 4475 c0 -22 2 -30 4 -17 2 12 2 30 0 40 -3 9 -5 -1 -4 -23z"/>
<path d="M1650 4437 c0 -20 5 -39 11 -42 7 -5 8 5 3 32 -9 51 -14 54 -14 10z"/>
<path d="M8588 4400 c-4 -14 -8 -36 -8 -50 1 -22 2 -23 11 -7 6 9 9 32 7 50
-3 31 -3 31 -10 7z"/>
<path d="M1671 4328 c-1 -20 4 -40 9 -43 12 -7 12 19 0 55 -7 22 -8 21 -9 -12z"/>
<path d="M8566 4286 c-4 -21 -5 -40 -2 -43 7 -8 18 42 14 64 -3 11 -7 3 -12
-21z"/>
<path d="M1690 4242 c0 -17 4 -34 10 -37 6 -4 7 6 3 27 -8 44 -13 48 -13 10z"/>
<path d="M8546 4202 c-5 -18 -5 -36 -2 -39 7 -7 19 43 13 59 -2 7 -7 -2 -11
-20z"/>
<path d="M1710 4157 c0 -14 5 -29 10 -32 7 -4 8 3 4 22 -9 38 -14 42 -14 10z"/>
<path d="M8527 4126 c-5 -15 -6 -31 -3 -34 8 -8 18 25 14 45 -3 13 -6 10 -11
-11z"/>
<path d="M1732 4080 c0 -14 2 -19 5 -12 2 6 2 18 0 25 -3 6 -5 1 -5 -13z"/>
<path d="M8511 4063 c0 -6 -4 -20 -7 -30 -5 -14 -4 -15 5 -7 7 7 11 20 8 30
-3 11 -5 14 -6 7z"/>
<path d="M1750 4019 c0 -18 66 -227 80 -251 6 -10 10 -25 10 -33 0 -8 5 -15
11 -15 7 0 8 7 4 18 -4 9 -29 80 -56 157 -27 77 -49 133 -49 124z"/>
<path d="M8491 3984 c0 -11 3 -14 6 -6 3 7 2 16 -1 19 -3 4 -6 -2 -5 -13z"/>
<path d="M8471 3924 c0 -11 3 -14 6 -6 3 7 2 16 -1 19 -3 4 -6 -2 -5 -13z"/>
<path d="M8451 3864 c0 -11 3 -14 6 -6 3 7 2 16 -1 19 -3 4 -6 -2 -5 -13z"/>
<path d="M8427 3798 c-4 -14 -9 -34 -13 -45 -3 -10 2 -5 11 10 9 16 15 36 13
45 -3 12 -6 9 -11 -10z"/>
<path d="M1860 3696 c0 -8 4 -17 9 -20 5 -4 7 3 4 14 -6 23 -13 26 -13 6z"/>
<path d="M1880 3643 c0 -13 5 -23 10 -23 13 0 13 11 0 30 -8 12 -10 11 -10 -7z"/>
<path d="M8362 3631 c-6 -17 -9 -31 -6 -31 7 0 25 52 20 57 -2 2 -8 -10 -14
-26z"/>
<path d="M1900 3604 c0 -16 24 -64 33 -64 4 0 0 15 -9 33 -20 38 -24 44 -24
31z"/>
<path d="M8327 3555 c-9 -19 -13 -35 -9 -35 9 0 36 59 30 65 -2 3 -12 -11 -21
-30z"/>
<path d="M1941 3514 c0 -11 3 -14 6 -6 3 7 2 16 -1 19 -3 4 -6 -2 -5 -13z"/>
<path d="M8296 3494 c-4 -9 -4 -19 -1 -22 2 -3 7 3 11 12 4 9 4 19 1 22 -2 3
-7 -3 -11 -12z"/>
<path d="M1960 3476 c0 -10 60 -126 65 -126 3 0 -9 28 -26 63 -33 65 -39 75
-39 63z"/>
<path d="M8272 3440 c-7 -11 -12 -25 -12 -32 0 -7 7 0 15 16 18 33 15 45 -3
16z"/>
<path d="M8241 3374 c0 -11 3 -14 6 -6 3 7 2 16 -1 19 -3 4 -6 -2 -5 -13z"/>
<path d="M8203 3309 c-12 -21 -18 -39 -14 -39 8 0 46 69 40 74 -2 3 -14 -13
-26 -35z"/>
<path d="M2030 3335 c0 -5 10 -21 21 -35 13 -17 17 -18 10 -5 -17 33 -31 51
-31 40z"/>
<path d="M2090 3231 c0 -6 4 -13 10 -16 6 -3 7 1 4 9 -7 18 -14 21 -14 7z"/>
<path d="M8136 3188 l-18 -33 21 25 c18 22 26 40 18 40 -1 0 -11 -15 -21 -32z"/>
<path d="M2130 3168 c0 -18 185 -288 197 -288 3 0 -12 24 -33 53 -21 28 -66
95 -101 147 -35 52 -63 92 -63 88z"/>
<path d="M8105 3140 c-3 -5 -1 -10 4 -10 6 0 11 5 11 10 0 6 -2 10 -4 10 -3 0
-8 -4 -11 -10z"/>
<path d="M8065 3080 c-3 -5 -1 -10 4 -10 6 0 11 5 11 10 0 6 -2 10 -4 10 -3 0
-8 -4 -11 -10z"/>
<path d="M7970 2940 c-12 -16 -19 -30 -16 -30 2 0 14 14 26 30 12 17 19 30 16
30 -2 0 -14 -13 -26 -30z"/>
<path d="M7929 2883 c-32 -39 -44 -57 -32 -50 13 8 57 67 50 67 -2 0 -10 -8
-18 -17z"/>
<path d="M2359 2832 c11 -16 28 -35 38 -43 10 -8 3 5 -16 29 -37 47 -53 58
-22 14z"/>
<path d="M7839 2768 c-27 -33 -32 -43 -15 -28 29 25 71 80 63 80 -3 0 -24 -24
-48 -52z"/>
<path d="M2480 2685 c24 -31 61 -68 65 -63 3 2 -14 22 -37 44 -23 21 -36 30
-28 19z"/>
<path d="M2677 2480 c73 -74 134 -132 137 -130 2 3 -57 63 -133 134 l-136 129
132 -133z"/>
<path d="M7669 2573 l-24 -28 28 24 c15 14 27 26 27 28 0 8 -8 1 -31 -24z"/>
<path d="M7520 2425 c-7 -9 -8 -15 -2 -15 5 0 12 7 16 15 3 8 4 15 2 15 -2 0
-9 -7 -16 -15z"/>
<path d="M7479 2383 c-13 -16 -12 -17 4 -4 16 13 21 21 13 21 -2 0 -10 -8 -17
-17z"/>
<path d="M2851 2318 c2 -2 18 -14 34 -28 l30 -25 -24 28 c-14 15 -29 27 -34
27 -6 0 -8 -1 -6 -2z"/>
<path d="M7375 2295 c-16 -14 -25 -25 -19 -25 6 0 21 11 34 25 30 32 24 31
-15 0z"/>
<path d="M7241 2189 c-35 -27 -60 -49 -54 -49 5 0 24 12 43 28 102 83 110 98
11 21z"/>
<path d="M2990 2200 c13 -11 27 -20 33 -20 5 0 -2 9 -16 20 -14 11 -29 20 -33
20 -4 0 3 -9 16 -20z"/>
<path d="M3104 2121 c4 -6 16 -16 28 -22 15 -8 18 -8 14 0 -4 6 -16 16 -28 22
-15 8 -18 8 -14 0z"/>
<path d="M3172 2074 c10 -10 20 -16 22 -13 3 3 -5 11 -17 18 -21 13 -21 12 -5
-5z"/>
<path d="M7075 2070 c-3 -5 -1 -10 4 -10 6 0 11 5 11 10 0 6 -2 10 -4 10 -3 0
-8 -4 -11 -10z"/>
<path d="M3226 2035 c10 -8 23 -15 28 -15 6 0 1 7 -10 15 -10 8 -23 15 -28 15
-6 0 -1 -7 10 -15z"/>
<path d="M6986 2015 c-11 -8 -16 -15 -10 -15 5 0 18 7 28 15 11 8 16 15 10 15
-5 0 -18 -7 -28 -15z"/>
<path d="M3330 1970 c0 -6 7 -10 15 -10 8 0 15 2 15 4 0 2 -7 6 -15 10 -8 3
-15 1 -15 -4z"/>
<path d="M3415 1923 c11 -10 43 -29 70 -43 28 -14 52 -28 53 -32 2 -5 11 -8
20 -8 23 0 7 11 -83 59 -44 24 -71 34 -60 24z"/>
<path d="M6825 1919 c-16 -11 -23 -19 -15 -19 16 1 56 27 49 34 -2 2 -17 -5
-34 -15z"/>
<path d="M6746 1875 c-11 -8 -16 -15 -10 -15 5 0 18 7 28 15 11 8 16 15 10 15
-5 0 -18 -7 -28 -15z"/>
<path d="M6683 1844 c-34 -15 -42 -24 -20 -24 6 0 23 9 37 20 29 23 27 23 -17
4z"/>
<path d="M3580 1830 c0 -5 9 -10 20 -10 11 0 20 -4 20 -10 0 -5 6 -10 13 -10
7 0 32 -9 55 -20 73 -35 60 -20 -18 20 -81 42 -90 45 -90 30z"/>
<path d="M6620 1810 c-9 -6 -10 -10 -3 -10 6 0 15 5 18 10 8 12 4 12 -15 0z"/>
<path d="M6575 1790 c-3 -5 -2 -10 4 -10 5 0 13 5 16 10 3 6 2 10 -4 10 -5 0
-13 -4 -16 -10z"/>
<path d="M6515 1764 l-30 -15 30 6 c17 4 34 11 40 16 13 13 -5 10 -40 -7z"/>
<path d="M3780 1745 c0 -6 69 -35 84 -35 6 0 -9 9 -33 20 -46 21 -51 23 -51
15z"/>
<path d="M6370 1705 c-23 -9 -28 -14 -15 -14 11 0 31 6 45 14 31 18 16 18 -30
0z"/>
<path d="M3885 1700 c3 -5 14 -10 23 -10 15 0 15 2 2 10 -20 13 -33 13 -25 0z"/>
<path d="M6305 1680 c-16 -7 -17 -9 -3 -9 9 -1 20 4 23 9 7 11 7 11 -20 0z"/>
<path d="M3958 1673 c7 -3 16 -2 19 1 4 3 -2 6 -13 5 -11 0 -14 -3 -6 -6z"/>
<path d="M3995 1659 c4 -5 15 -9 25 -9 10 0 22 -4 25 -10 3 -5 17 -10 30 -10
13 0 27 -4 30 -10 3 -5 18 -10 33 -9 20 1 11 6 -33 21 -103 34 -116 37 -110
27z"/>
<path d="M6238 1653 c7 -3 16 -2 19 1 4 3 -2 6 -13 5 -11 0 -14 -3 -6 -6z"/>
<path d="M6185 1640 c-19 -8 -19 -9 2 -9 12 -1 25 4 28 9 7 12 -2 12 -30 0z"/>
<path d="M6085 1610 c-50 -15 -55 -19 -28 -19 17 -1 35 4 38 9 3 6 17 10 30
10 13 0 27 5 30 10 8 13 2 12 -70 -10z"/>
<path d="M4180 1599 c0 -5 11 -9 25 -9 14 0 25 2 25 4 0 2 -11 6 -25 8 -14 3
-25 1 -25 -3z"/>
<path d="M4245 1580 c3 -5 21 -10 38 -9 31 1 31 1 7 9 -36 11 -52 11 -45 0z"/>
<path d="M5930 1570 c-69 -17 -71 -18 -33 -19 23 -1 45 4 48 9 3 6 19 10 36
10 16 0 29 5 29 10 0 6 -1 10 -2 9 -2 -1 -37 -9 -78 -19z"/>
<path d="M4335 1560 c3 -6 20 -10 37 -10 38 0 34 5 -10 13 -21 4 -31 3 -27 -3z"/>
<path d="M4415 1540 c3 -5 25 -9 48 -9 40 1 40 2 12 9 -44 11 -67 11 -60 0z"/>
<path d="M5778 1533 c12 -2 30 -2 40 0 9 3 -1 5 -23 4 -22 0 -30 -2 -17 -4z"/>
<path d="M4535 1520 c3 -5 25 -10 47 -10 51 0 47 5 -10 14 -29 4 -41 3 -37 -4z"/>
<path d="M5675 1520 l-40 -7 52 -2 c28 0 55 4 58 9 7 11 -9 11 -70 0z"/>
<path d="M4640 1500 c8 -5 42 -9 75 -9 l60 2 -45 8 c-66 11 -109 11 -90 -1z"/>
<path d="M5530 1500 l-45 -7 58 -1 c32 -1 57 2 57 8 0 11 -1 11 -70 0z"/>
<path d="M4826 1479 c3 -5 53 -9 111 -9 59 0 104 2 102 4 -9 8 -218 13 -213 5z"/>
<path d="M5310 1480 l-85 -6 95 -1 c52 -1 106 3 120 7 22 7 21 8 -10 7 -19 0
-73 -4 -120 -7z"/>
</g>
</svg>
